<?xml version="1.0" encoding="utf-8"?><!-- Uploaded to: SVG Repo, www.svgrepo.com, Generator: SVG Repo Mixer Tools -->
<svg version="1.1" id="Uploaded to svgrepo.com" xmlns="http://www.w3.org/2000/svg" xmlns:xlink="http://www.w3.org/1999/xlink" 
	 width="800px" height="800px" viewBox="0 0 32 32" xml:space="preserve">
<style type="text/css">
	.feather_een{fill:#0B1719;}
</style>
<path class="feather_een" d="M24,2H8C6.343,2,5,3.343,5,5v22c0,1.657,1.343,3,3,3h16c1.657,0,3-1.343,3-3V5C27,3.343,25.657,2,24,2z
	 M26,27c0,1.103-0.897,2-2,2H8c-1.103,0-2-0.897-2-2V5c0-1.103,0.897-2,2-2h16c1.103,0,2,0.897,2,2V27z M24,4H8C7.448,4,7,4.448,7,5
	v22c0,0.552,0.448,1,1,1h16c0.552,0,1-0.448,1-1V5C25,4.448,24.552,4,24,4z M24,5v7h-6v-1c0-0.552-0.448-1-1-1h-5
	c-0.552,0-1,0.448-1,1v1H8V5H24z M12,14v-3h5v3H12z M14.819,15L14.5,15.399L14.181,15H14.819z M10,27v-1h12v1H10z M23,27v-1
	c0-0.552-0.448-1-1-1H10c-0.552,0-1,0.448-1,1v1H8V13h3v1c0,0.552,0.448,1,1,1h0.9l1.21,1.512c0.1,0.125,0.245,0.188,0.39,0.188
	c0.145,0,0.29-0.063,0.39-0.188L16.1,15H17c0.552,0,1-0.448,1-1v-1h6v14H23z M13,22.5c0,0.276,0.224,0.5,0.5,0.5h6
	c0.276,0,0.5,0.224,0.5,0.5S19.776,24,19.5,24h-6c-0.827,0-1.5-0.673-1.5-1.5s0.673-1.5,1.5-1.5h5c0.276,0,0.5-0.224,0.5-0.5
	S18.776,20,18.5,20H15c-0.551,0-1-0.449-1-1v-0.5c0-0.276,0.224-0.5,0.5-0.5s0.5,0.224,0.5,0.5V19h3.5c0.827,0,1.5,0.673,1.5,1.5
	S19.327,22,18.5,22h-5C13.224,22,13,22.224,13,22.5z"/>
</svg>